# AST/ASF file generated using VICON BodyLanguage
# -----------------------------------------------
:version 1.10
:name VICON
:units
  mass 1.0
  length 0.45
  angle deg
:documentation
   .ast/.asf automatically generated from VICON data using
   VICON BodyBuilder and BodyLanguage model FoxedUp or BRILLIANT.MOD
:root
   order TX TY TZ RX RY RZ
   axis XYZ
   position 0 0 0  
   orientation 0 0 0 
:bonedata
  begin
     id 1 
     name lhipjoint
     direction 0.573633 -0.743009 0.344793 
     length 2.46257 
     axis 0 0 0  XYZ
  end
  begin
     id 2 
     name lfemur
     direction 0.34202 -0.939693 0  
     length 7.3842  
     axis 0 0 20  XYZ
    dof rx ry rz
    limits (-160.0 20.0)
           (-70.0 70.0)
           (-60.0 70.0)
  end
  begin
     id 3 
     name ltibia
     direction 0.34202 -0.939693 0   
     length 7.50407   
     axis 0 0 20   XYZ
    dof rx
    limits (-10.0 170.0)
  end
  begin
     id 4 
     name lfoot
     direction 0.110749 -0.304281 0.946123   
     length 1.95925   
     axis -90 7.62852e-016 20   XYZ
    dof rx rz
    limits (-45.0 90.0)
           (-70.0 20.0)
  end
  begin
     id 5 
     name ltoes
     direction 1.53554e-011 -4.21843e-011 1   
     length 0.978318   
     axis -90 7.62852e-016 20   XYZ
    dof rx
    limits (-90.0 20.0)
  end
  begin
     id 6 
     name rhipjoint
     direction -0.488109 -0.791693 0.367385   
     length 2.31113  
     axis 0 0 0  XYZ 
  end
  begin
     id 7 
     name rfemur
     direction -0.34202 -0.939693 0   
     length 7.40965   
     axis 0 0 -20   XYZ
    dof rx ry rz
    limits (-160.0 20.0)
           (-70.0 70.0)
           (-70.0 60.0)
  end
  begin
     id 8 
     name rtibia
     direction -0.34202 -0.939693 0   
     length 7.55548   
     axis 0 0 -20   XYZ
    dof rx
    limits (-10.0 170.0)
 end
 begin
     id 9 
     name rfoot
     direction -0.127594 -0.350561 0.927808   
     length 2.07199  
     axis -90 -7.62852e-016 -20   XYZ
    dof rx rz
    limits (-45.0 90.0)
           (-20.0 70.0)
  end
  begin
     id 10 
     name rtoes
     direction -1.53542e-011 -4.21909e-011 1   
     length 1.02667   
     axis -90 -7.62852e-016 -20   XYZ
    dof rx
    limits (-90.0 20.0)
  end
  begin
     id 11 
     name lowerback
     direction -0.0103342 0.997298 -0.0727278   
     length 2.02836   
     axis 0 0 0   XYZ
    dof rx ry rz
    limits (-20.0 45.0)
           (-30.0 30.0)
           (-30.0 30.0)
  end
  begin
     id 12 
     name upperback
     direction 0.0171146 0.999786 -0.011606   
     length 2.03179   
     axis 0 0 0   XYZ
    dof rx ry rz
    limits (-20.0 45.0)
           (-30.0 30.0)
           (-30.0 30.0)
  end
  begin
     id 13 
     name thorax
     direction 0.0216927 0.999513 0.0224343   
     length 2.03882   
     axis 0 0 0   XYZ
    dof rx ry rz
    limits (-20.0 45.0)
           (-30.0 30.0)
           (-30.0 30.0)
  end
  begin
     id 14 
     name lowerneck
     direction 0.000989287 0.993907 0.110221   
     length 1.75428   
     axis 0 0 0   XYZ
    dof rx ry rz
    limits (-20.0 45.0)
           (-30.0 30.0)
           (-30.0 30.0)
  end
  begin
     id 15 
     name upperneck
     direction -0.0172474 0.994813 -0.100253   
     length 1.77058   
     axis 0 0 0   XYZ
    dof rx ry rz
    limits (-20.0 45.0)
           (-30.0 30.0)
           (-30.0 30.0)
  end
  begin
     id 16
     name head
     direction -0.00486455 0.99894 -0.0457663  
     length 1.77427  
     axis 0 0 0   XYZ
    dof rx ry rz
    limits (-20.0 45.0)
           (-30.0 30.0)
           (-30.0 30.0)
  end
  begin
     id 17 
     name lclavicle
     direction 0.927314 0.333734 -0.169441  
     length 3.97584  
     axis 0 0 0   XYZ
    dof ry rz
    limits (-20.0 10.0)
           (0.0 20.0)
  end
  begin
     id 18 
     name lhumerus
     direction 1 -4.48965e-011 -3.25313e-028   
     length 4.76468   
     axis 180 -30 -90   XYZ
    dof rx ry rz
    limits (-60.0 90.0)
           (-90.0 90.0)
           (-90.0 90.0)
  end
  begin
     id 19
     name lradius
     direction 1 -4.48969e-011 -2.8465e-028   
     length 3.52712   
     axis -180 -30 -90   XYZ
    dof rx
    limits (-10.0 170.0)
  end
  begin
     id 20
     name lwrist
     direction 1 -4.4896e-011 -7.78665e-028   
     length 1.76356   
     axis 1.91374e-015 90 90   XYZ
    dof ry
    limits (-180.0 0.0)
 end
  begin
     id 21 
     name lhand
     direction 1 -4.48959e-011 -1.55733e-027   
     length 0.859564   
     axis 9.9371e-016 90 90   XYZ
    dof rx rz
    limits (-90.0 90.0)
           (-45.0 45.0)
  end
  begin
     id 22 
     name lfingers
     direction 1 -4.48965e-011 -3.11466e-027   
     length 0.693002   
     axis 1.98742e-015 90 90   XYZ
    dof rx
    limits (0.0 90.0)
  end
  begin
     id 23
     name lthumb
     direction 0.707107 -6.34948e-011 0.707107   
     length 0.995017   
     axis -90 45 2.85299e-015   XYZ
    dof rx rz
    limits (-45.0 45.0)
           (-45.0 45.0)
  end
  begin
     id 24 
     name rclavicle
     direction -0.899388 0.348209 -0.264294   
     length 3.68366  
     axis 0 0 0   XYZ 
    dof ry rz
    limits (-10.0 20.0)
           (-20.0 0.0)
  end
  begin
     id 25 
     name rhumerus
     direction -1 -4.48965e-011 -3.01536e-027  
     length 4.90577   
     axis 180 30 90   XYZ
    dof rx ry rz
    limits (-90.0 60.0)
           (-90.0 90.0)
           (-90.0 90.0)
  end
  begin
     id 26 
     name rradius
     direction -1 -4.48966e-011 3.93291e-027   
     length 3.42692   
     axis -180 30 90   XYZ
    dof rx
    limits (-10.0 170.0)
  end
  begin
     id 27 
     name rwrist
     direction -1 -4.48969e-011 -7.78665e-028   
     length 1.71346   
     axis 1.91374e-015 -90 -90   XYZ
    dof ry
    limits (-180.0 0.0)
  end
  begin
     id 28
     name rhand
     direction -1 -4.48967e-011 -1.55733e-027   
     length 0.740957   
     axis 9.9371e-016 -90 -90   XYZ
    dof rx rz
    limits (-90.0 90.0)
           (-45.0 45.0)
  end
  begin
     id 29
     name rfingers
     direction -1 -4.48949e-011 -3.11466e-027   
     length 0.597378   
     axis 1.98742e-015 -90 -90   XYZ
    dof rx
    limits (0.0 90.0)
  end
  begin
     id 30
     name rthumb
     direction -0.707107 -6.34931e-011 0.707107   
     length 0.857719   
     axis -90 -45 -2.85299e-015   XYZ
    dof rx rz
    limits (-45.0 45.0)
           (-45.0 45.0)
  end
:hierarchy
  begin
    root lhipjoint rhipjoint lowerback
    lhipjoint lfemur
    lfemur ltibia
    ltibia lfoot
    lfoot ltoes
    rhipjoint rfemur
    rfemur rtibia
    rtibia rfoot
    rfoot rtoes
    lowerback upperback
    upperback thorax
    thorax lowerneck lclavicle rclavicle
    lowerneck upperneck
    upperneck head
    lclavicle lhumerus
    lhumerus lradius
    lradius lwrist
    lwrist lhand lthumb
    lhand lfingers
    rclavicle rhumerus
    rhumerus rradius
    rradius rwrist
    rwrist rhand rthumb
    rhand rfingers
  end

#!OML:ASF E:\I on waltz\AllaLogoMonkeySwing\Project 1\Capture day 1\Session 1\Subject1.ASF
:FULLY-SPECIFIED
:DEGREES
361
root 1.53563 17.8323 5.30532 -0.214038 -0.0565241 -2.34382
lowerback 4.40338 1.15299 -0.5793
upperback -1.41887 1.55903 1.42797
thorax -3.98893 0.80816 1.67671
lowerneck -14.8013 1.61666 0.35877
upperneck 16.5511 2.2321 -0.491965
head 7.54339 1.0429 0.0196636
rclavicle 5.64983e-015 -4.27387e-015
rhumerus -37.1499 -27.7396 -72.7191
rradius 20.0221
rwrist 12.4248
rhand -5.67051 -36.8918
rfingers 7.12502
rthumb 20.1491 -65.8669
lclavicle 5.64983e-015 -4.27387e-015
lhumerus -41.7941 21.188 79.0728
lradius 33.4054
lwrist -6.96609
lhand -4.73639 -12.4931
lfingers 7.12502
lthumb 21.0467 16.3848
rfemur 0.745621 0.873135 22.5775
rtibia 16.3801
rfoot -15.3114 -11.4733
rtoes 20.464
lfemur 2.94107 -1.23774 -17.1515
ltibia 12.3189
lfoot -15.4776 3.45223
ltoes -28.0025
362
root 1.53661 17.8322 5.31043 -0.155314 0.0023106 -2.22879
lowerback 4.43576 1.15031 -0.654418
upperback -1.42881 1.54939 1.38338
thorax -4.01797 0.804822 1.67287
lowerneck -14.7693 1.62077 0.446285
upperneck 16.5587 2.24526 -0.634232
head 7.54319 1.04116 -0.0401582
rclavicle 7.67573e-015 -1.63997e-015
rhumerus -37.2491 -27.7757 -72.6612
rradius 20.0251
rwrist 12.3063
rhand -5.67899 -36.884
rfingers 7.12502
rthumb 20.1409 -65.8599
lclavicle 7.67573e-015 -1.63997e-015
lhumerus -41.4876 20.8814 79.331
lradius 33.3593
lwrist -6.65078
lhand -4.87424 -12.3549
lfingers 7.12502
lthumb 20.9142 16.5377
rfemur 0.688755 0.812971 22.4377
rtibia 16.4137
rfoot -15.3873 -11.4423
rtoes 20.7191
lfemur 2.90713 -1.2116 -17.2725
ltibia 12.2698
lfoot -15.4923 3.36187
ltoes -27.9974
363
root 1.53898 17.8323 5.31372 -0.0769306 0.0366877 -2.05473
lowerback 4.4419 1.14261 -0.792359
upperback -1.44352 1.52854 1.32069
thorax -4.03791 0.79727 1.68695
lowerneck -14.6264 1.654 0.619634
upperneck 16.4974 2.28277 -0.799528
head 7.50235 1.05504 -0.120236
rclavicle -5.34311e-015 -2.98177e-016
rhumerus -37.3059 -27.8015 -72.6488
rradius 20.0823
rwrist 12.2426
rhand -5.5493 -36.8271
rfingers 7.12502
rthumb 20.2656 -65.7898
lclavicle -5.34311e-015 -2.98177e-016
lhumerus -40.9875 20.5226 79.6258
lradius 33.0289
lwrist -6.2409
lhand -5.22397 -12.2002
lfingers 7.12502
lthumb 20.5782 16.7291
rfemur 0.598532 0.686501 22.2229
rtibia 16.4584
rfoot -15.3839 -11.3673
rtoes 20.4451
lfemur 2.85536 -1.10462 -17.4591
ltibia 12.1982
lfoot -15.5 3.23523
ltoes -28.0898
364
root 1.54076 17.8334 5.31786 -0.0255766 0.0323743 -1.99717
lowerback 4.45083 1.14266 -0.855514
upperback -1.42863 1.52428 1.31078
thorax -4.0288 0.796468 1.71249
lowerneck -14.5883 1.67792 0.632341
upperneck 16.481 2.30023 -0.734986
head 7.48971 1.07056 -0.0997221
rclavicle 3.69926e-015 2.28602e-015
rhumerus -37.2616 -27.6382 -72.7796
rradius 20.2239
rwrist 11.8709
rhand -5.62533 -36.7287
rfingers 7.12502
rthumb 20.1925 -65.6992
lclavicle 3.69926e-015 2.28602e-015
lhumerus -40.6854 20.3079 79.8369
lradius 32.9958
lwrist -5.98531
lhand -5.38606 -12.38
lfingers 7.12502
lthumb 20.4224 16.566
rfemur 0.519834 0.598134 22.1446
rtibia 16.5259
rfoot -15.3735 -11.3098
rtoes 20.1683
lfemur 2.85862 -1.00912 -17.513
ltibia 12.0967
lfoot -15.5103 3.10891
ltoes -27.9815
365
root 1.54266 17.836 5.32295 0.00442719 0.0220904 -2.00458
lowerback 4.48944 1.15151 -0.853176
upperback -1.39779 1.53709 1.34144
thorax -4.01998 0.802927 1.74139
lowerneck -14.61 1.66467 0.54786
upperneck 16.4521 2.29205 -0.689446
head 7.48239 1.06569 -0.0717746
rclavicle 2.64011e-016 -2.98177e-015
rhumerus -37.1524 -27.3734 -72.9469
rradius 20.4036
rwrist 11.4157
rhand -5.91205 -36.6357
rfingers 7.12502
rthumb 19.9169 -65.6351
lclavicle 2.64011e-016 -2.98177e-015
lhumerus -40.5726 20.1801 80.0076
lradius 33.2239
lwrist -5.83764
lhand -5.37829 -13.1016
lfingers 7.12502
lthumb 20.4299 15.8436
rfemur 0.473167 0.575168 22.1443
rtibia 16.5814
rfoot -15.3871 -11.3212
rtoes 20.2424
lfemur 2.89221 -1.00615 -17.5066
ltibia 12.0106
lfoot -15.5123 3.06059
ltoes -27.7222
366
root 1.54381 17.8375 5.32691 0.0667787 0.00214569 -1.97613
lowerback 4.50227 1.15319 -0.882967
upperback -1.38203 1.53823 1.36347
thorax -4.0124 0.804386 1.7807
lowerneck -14.5846 1.6527 0.532621
upperneck 16.3887 2.29679 -0.785956
head 7.45823 1.05815 -0.100862
rclavicle 2.23951e-014 4.77083e-015
rhumerus -37.0467 -27.1321 -73.1019
rradius 20.6304
rwrist 11.0619
rhand -6.04276 -36.6338
rfingers 7.12502
rthumb 19.7913 -65.6462
lclavicle 2.23951e-014 4.77083e-015
lhumerus -40.474 20.0099 80.1681
lradius 33.455
lwrist -5.67165
lhand -5.37707 -13.6127
lfingers 7.12502
lthumb 20.4311 15.3325
rfemur 0.41782 0.627765 22.1201
rtibia 16.5912
rfoot -15.3799 -11.3832
rtoes 20.2011
lfemur 2.85857 -1.00299 -17.5402
ltibia 11.981
lfoot -15.5147 3.05251
ltoes -27.6857
367
root 1.54385 17.8381 5.32964 0.139138 0.00832899 -1.98944
lowerback 4.49463 1.11873 -0.872329
upperback -1.36863 1.49377 1.38932
thorax -3.9929 0.782165 1.80531
lowerneck -14.581 1.68832 0.520788
upperneck 16.3664 2.35927 -0.845531
head 7.45134 1.08169 -0.111891
rclavicle -1.28014e-014 -6.06293e-015
rhumerus -36.9224 -26.828 -73.3426
rradius 20.9529
rwrist 10.61
rhand -6.00566 -36.7337
rfingers 7.12502
rthumb 19.8269 -65.7424
lclavicle -1.28014e-014 -6.06293e-015
lhumerus -40.3937 19.8983 80.2632
lradius 33.722
lwrist -5.5145
lhand -5.31734 -13.6528
lfingers 7.12502
lthumb 20.4885 15.2862
rfemur 0.354659 0.679648 22.1495
rtibia 16.5854
rfoot -15.3549 -11.4212
rtoes 20.6076
lfemur 2.78341 -0.965037 -17.5142
ltibia 11.9841
lfoot -15.5201 3.00659
ltoes -27.9134
368
root 1.54537 17.8391 5.33239 0.18241 0.0301222 -2.07078
lowerback 4.52448 1.07546 -0.761175
upperback -1.34603 1.44426 1.43624
thorax -3.98279 0.755202 1.79502
lowerneck -14.67 1.71647 0.414174
upperneck 16.4061 2.4151 -0.80789
head 7.47853 1.10464 -0.0751672
rclavicle -1.23246e-014 -8.94531e-016
rhumerus -36.7539 -26.5582 -73.5708
rradius 21.2866
rwrist 10.1784
rhand -6.00629 -36.7711
rfingers 7.12502
rthumb 19.8263 -65.7799
lclavicle -1.23246e-014 -8.94531e-016
lhumerus -40.2979 19.8801 80.3526
lradius 33.9585
lwrist -5.40966
lhand -5.33996 -13.6668
lfingers 7.12502
lthumb 20.4667 15.2745
rfemur 0.317303 0.688702 22.2409
rtibia 16.5846
rfoot -15.3546 -11.4614
rtoes 20.7109
lfemur 2.72574 -0.942971 -17.4207
ltibia 12.0117
lfoot -15.531 2.97189
ltoes -28.1316
369
root 1.54798 17.8395 5.33539 0.24974 0.0371299 -2.08801
lowerback 4.54624 1.05134 -0.706485
upperback -1.3419 1.41671 1.47257
thorax -3.98936 0.74064 1.80376
lowerneck -14.7374 1.74128 0.323999
upperneck 16.4179 2.46401 -0.778305
head 7.49298 1.12478 -0.0447941
rclavicle 2.00291e-014 6.06293e-015
rhumerus -36.5671 -26.3917 -73.6996
rradius 21.5319
rwrist 9.88577
rhand -5.97537 -36.6298
rfingers 7.12502
rthumb 19.856 -65.6355
lclavicle 2.00291e-014 6.06293e-015
lhumerus -40.1984 19.8351 80.4546
lradius 34.1779
lwrist -5.37394
lhand -5.39075 -13.6745
lfingers 7.12502
lthumb 20.4179 15.272
rfemur 0.255908 0.708422 22.2569
rtibia 16.5757
rfoot -15.349 -11.538
rtoes 20.5464
lfemur 2.63666 -0.922058 -17.4055
ltibia 12.0548
lfoot -15.5556 2.95499
ltoes -28.275
370
root 1.54999 17.84 5.3371 0.36932 0.037754 -2.04073
lowerback 4.54155 1.01955 -0.752327
upperback -1.37459 1.37277 1.49677
thorax -4.02071 0.720655 1.85792
lowerneck -14.7211 1.79819 0.444972
upperneck 16.4326 2.55665 -0.998123
head 7.50031 1.15561 -0.126733
rclavicle -1.25032e-014 3.97569e-016
rhumerus -36.4316 -26.1893 -73.8318
rradius 21.8072
rwrist 9.7519
rhand -5.75154 -36.5938
rfingers 7.12502
rthumb 20.0712 -65.5771
lclavicle -1.25032e-014 3.97569e-016
lhumerus -40.1426 19.836 80.4593
lradius 34.4006
lwrist -5.4138
lhand -5.33927 -13.5638
lfingers 7.12502
lthumb 20.4674 15.3774
rfemur 0.130931 0.746651 22.2031
rtibia 16.5642
rfoot -15.316 -11.6136
rtoes 20.3409
lfemur 2.49881 -0.895217 -17.4599
ltibia 12.0709
lfoot -15.5486 2.93209
ltoes -28.289
371
root 1.55104 17.8417 5.33686 0.483001 0.0633669 -1.98395
lowerback 4.59855 0.977406 -0.820594
upperback -1.43541 1.31385 1.52059
thorax -4.11597 0.694395 1.92446
lowerneck -14.6909 1.83261 0.621808
upperneck 16.483 2.629 -1.33483
head 7.51953 1.16896 -0.258274
rclavicle 1.60651e-014 6.65929e-015
rhumerus -36.3594 -25.899 -74.0036
rradius 22.1662
rwrist 9.98865
rhand -5.66804 -36.6122
rfingers 7.12502
rthumb 20.1514 -65.5871
lclavicle 1.60651e-014 6.65929e-015
lhumerus -40.1294 19.9292 80.3859
lradius 34.5528
lwrist -5.48563
lhand -5.33482 -13.488
lfingers 7.12502
lthumb 20.4717 15.4527
rfemur 0.00464356 0.787159 22.1435
rtibia 16.5689
rfoot -15.2977 -11.6869
rtoes 20.3467
lfemur 2.38049 -0.877596 -17.5216
ltibia 12.0396
lfoot -15.5014 2.88609
ltoes -28.3141
372
root 1.55213 17.8449 5.33684 0.579303 0.121687 -1.93691
lowerback 4.65015 0.925994 -0.854631
upperback -1.45611 1.24399 1.53908
thorax -4.16502 0.661253 1.96765
lowerneck -14.7964 1.8497 0.596742
upperneck 16.5419 2.66587 -1.37114
head 7.55805 1.18043 -0.260893
rclavicle -1.36944e-014 1.12313e-014
rhumerus -36.1557 -25.7078 -74.1975
rradius 22.4477
rwrist 10.7908
rhand -5.98887 -36.4196
rfingers 7.12502
rthumb 19.8431 -65.4266
lclavicle -1.36944e-014 1.12313e-014
lhumerus -40.0721 20.0256 80.3413
lradius 34.7208
lwrist -5.46184
lhand -5.3951 -13.4597
lfingers 7.12502
lthumb 20.4138 15.4872
rfemur -0.0979948 0.811054 22.0966
rtibia 16.5807
rfoot -15.3119 -11.7538
rtoes 20.4979
lfemur 2.28702 -0.849608 -17.568
ltibia 11.9908
lfoot -15.4801 2.79814
ltoes -28.3699
373
root 1.55507 17.8476 5.33828 0.658523 0.147047 -1.91045
lowerback 4.64946 0.891829 -0.829912
upperback -1.43921 1.19973 1.53914
thorax -4.14469 0.638365 1.9576
lowerneck -14.9114 1.86629 0.585284
upperneck 16.5937 2.67665 -1.29314
head 7.59402 1.19128 -0.230993
rclavicle 9.11614e-016 2.18663e-015
rhumerus -35.9015 -25.6122 -74.4046
rradius 22.7198
rwrist 11.8488
rhand -6.46229 -36.2331
rfingers 7.12502
rthumb 19.3879 -65.2865
lclavicle 9.11614e-016 2.18663e-015
lhumerus -39.9802 20.0787 80.3002
lradius 34.9167
lwrist -5.42555
lhand -5.43417 -13.393
lfingers 7.12502
lthumb 20.3762 15.558
rfemur -0.182262 0.792143 22.0535
rtibia 16.5925
rfoot -15.3278 -11.7399
rtoes 20.484
lfemur 2.22673 -0.831215 -17.6048
ltibia 11.9393
lfoot -15.4483 2.75336
ltoes -28.2148
374
root 1.55894 17.8485 5.33894 0.712884 0.13895 -1.89029
lowerback 4.67371 0.87869 -0.785751
upperback -1.42805 1.18474 1.53732
thorax -4.1452 0.629662 1.93188
lowerneck -14.8886 1.89724 0.687994
upperneck 16.5497 2.7069 -1.35737
head 7.57826 1.20643 -0.26602
rclavicle -1.6477e-014 -1.21259e-014
rhumerus -35.6771 -25.3185 -74.6889
rradius 23.0524
rwrist 12.549
rhand -6.98165 -36.1606
rfingers 7.12502
rthumb 18.8885 -65.2635
lclavicle -1.6477e-014 -1.21259e-014
lhumerus -39.8741 20.155 80.234
lradius 35.0004
lwrist -5.42171
lhand -5.46874 -13.3943
lfingers 7.12502
lthumb 20.343 15.5603
rfemur -0.251432 0.752453 22.0079
rtibia 16.6129
rfoot -15.326 -11.6712
rtoes 20.2976
lfemur 2.20158 -0.826274 -17.6429
ltibia 11.8784
lfoot -15.3806 2.75393
ltoes -28.1649
